<?xml version="1.0" standalone="no"?>
<!DOCTYPE svg PUBLIC "-//W3C//DTD SVG 1.1//EN" "http://www.w3.org/Graphics/SVG/1.1/DTD/svg11.dtd" >
<svg xmlns="http://www.w3.org/2000/svg">
<metadata>Generated by IcoMoon</metadata>
<defs>
<font id="icomoon" horiz-adv-x="1024">
<font-face units-per-em="1024" ascent="960" descent="-64" />
<missing-glyph horiz-adv-x="1024" />
<glyph unicode="&#x20;" horiz-adv-x="512" d="" />
<glyph unicode="&#xe900;" glyph-name="arrow-left" d="M928 448c0-17.673-14.327-32-32-32v0h-690.731l244.011-244.053c6.274-5.858 10.185-14.178 10.185-23.412 0-17.673-14.327-32-32-32-9.234 0-17.554 3.911-23.394 10.166l-0.017 0.019-298.667 298.667c-5.772 5.794-9.341 13.787-9.341 22.613s3.569 16.819 9.342 22.614l298.666 298.666c5.699 5.321 13.376 8.588 21.815 8.588 17.673 0 32-14.327 32-32 0-8.44-3.267-16.116-8.606-21.834l0.017 0.019-244.011-244.053h690.731c17.673 0 32-14.327 32-32v0z" />
<glyph unicode="&#xe901;" glyph-name="arrow-right" d="M96 448c0 17.673 14.327 32 32 32v0h690.731l-244.011 244.053c-6.274 5.858-10.185 14.178-10.185 23.412 0 17.673 14.327 32 32 32 9.234 0 17.554-3.911 23.394-10.166l0.017-0.019 298.667-298.667c5.772-5.794 9.341-13.787 9.341-22.613s-3.569-16.819-9.342-22.614l-298.666-298.666c-5.699-5.321-13.376-8.588-21.815-8.588-17.673 0-32 14.327-32 32 0 8.44 3.267 16.116 8.606 21.834l-0.017-0.019 244.011 244.053h-690.731c-17.673 0-32 14.327-32 32v0z" />
<glyph unicode="&#xe902;" glyph-name="arrow-up" d="M512 32c-17.673 0-32 14.327-32 32v0 690.731l-244.053-244.011c-5.858-6.274-14.178-10.185-23.412-10.185-17.673 0-32 14.327-32 32 0 9.234 3.911 17.554 10.166 23.394l0.019 0.017 298.667 298.667c5.794 5.772 13.787 9.341 22.613 9.341s16.819-3.569 22.614-9.342l298.666-298.666c5.321-5.699 8.588-13.376 8.588-21.815 0-17.673-14.327-32-32-32-8.44 0-16.116 3.267-21.834 8.606l0.019-0.017-244.053 244.011v-690.731c0-17.673-14.327-32-32-32v0z" />
<glyph unicode="&#xe903;" glyph-name="arrow-down" d="M512 864c17.673 0 32-14.327 32-32v0-690.731l244.053 244.011c5.858 6.274 14.178 10.185 23.412 10.185 17.673 0 32-14.327 32-32 0-9.234-3.911-17.554-10.166-23.394l-0.019-0.017-298.667-298.667c-5.794-5.772-13.787-9.341-22.613-9.341s-16.819 3.569-22.614 9.342l-298.666 298.666c-5.321 5.699-8.588 13.376-8.588 21.815 0 17.673 14.327 32 32 32 8.44 0 16.116-3.267 21.834-8.606l-0.019 0.017 244.053-244.011v690.731c0 17.673 14.327 32 32 32v0z" />
<glyph unicode="&#xe904;" glyph-name="award" d="M945.5 89.938c0 0-113.657 195.335-134.042 230.369 23.194 7.076 47.903 13.326 58.17 31.051 17.111 29.539-13.346 77.995-5.349 109.653 8.236 32.584 56.87 60.781 56.87 93.901 0 32.27-50.278 69.969-58.522 102.362-8.052 31.655 22.313 80.162 5.147 109.664-17.166 29.505-74.339 27.080-97.877 49.728-24.214 23.306-24.139 80.328-53.347 95.947-29.331 15.676-76.991-16.006-109.554-8.501-32.191 7.419-60.952 55.888-94.577 55.888-34.123 0-88.399-54.98-96.911-56.959-32.546-7.566-80.27 24.039-109.567 8.296-29.181-15.671-29.001-72.699-53.173-96.043-23.497-22.689-80.674-20.37-97.787-49.908-17.11-29.533 13.347-77.976 5.352-109.653-8.017-31.757-58.342-63.937-58.342-100.664 0-33.123 48.754-61.228 57.042-93.798 8.056-31.655-22.31-80.155-5.144-109.67 9.345-16.063 30.548-22.658 51.723-28.996 2.471-0.741 7.145-3.502 3.98-8.117-14.487-25.006-131.086-226.239-131.086-226.239-9.276-16.005-1.744-29.723 16.734-30.502l90.443-3.772c18.477-0.778 41.656-14.206 51.518-29.85l48.261-76.582c9.863-15.643 25.512-15.35 34.785 0.655 0 0 135.035 233.131 135.089 233.196 2.71 3.168 5.434 2.516 6.735 1.41 14.776-12.582 35.372-25.129 52.562-25.129 16.858 0 32.471 11.814 47.91 24.989 1.256 1.068 4.314 3.263 6.55-1.29 0.038-0.072 134.922-231.929 134.922-231.929 9.298-15.981 24.948-16.254 34.782-0.591l48.125 76.674c9.837 15.654 32.99 29.133 51.466 29.938l90.433 3.939c18.47 0.812 25.979 14.551 16.681 30.532zM661.886 299.643c-99.997-58.177-220.027-51.941-311.706 5.888-134.338 86.047-178.54 264.049-97.783 403.433 81.679 140.993 261.227 190.743 403.491 113.262 0.748-0.407 1.485-0.827 2.225-1.242 1.055-0.584 2.106-1.176 3.157-1.774 43.889-25.304 81.944-62.028 109.196-108.87 83.292-143.167 34.584-327.408-108.582-410.697zM639.020 777.098c-0.416 0.241-0.836 0.465-1.253 0.703-75.994 43.983-172.855 47.199-254.031-0.030-120.465-70.084-161.457-225.104-91.373-345.567 21.386-36.758 50.69-66.103 84.502-87.163 2.874-1.819 5.782-3.611 8.755-5.332 120.593-69.864 275.531-28.593 345.392 91.996 69.861 120.593 28.6 275.527-91.993 345.393zM669.187 579.956l-42.226-41.158c-13.076-12.749-21.251-37.908-18.159-55.907l9.967-58.115c3.089-18.002-7.612-25.774-23.777-17.278l-52.193 27.44c-16.166 8.499-42.619 8.499-58.784 0l-52.19-27.44c-16.169-8.496-26.87-0.724-23.781 17.278l9.967 58.115c3.089 17.999-5.086 43.158-18.162 55.907l-42.223 41.158c-13.080 12.745-8.991 25.324 9.083 27.952l58.351 8.482c18.070 2.625 39.472 18.174 47.558 34.55l26.095 52.874c8.083 16.377 21.309 16.377 29.389 0l26.098-52.874c8.083-16.377 29.484-31.926 47.558-34.55l58.351-8.482c18.070-2.628 22.159-15.206 9.079-27.952z" />
<glyph unicode="&#xe905;" glyph-name="camera" d="M1000.4 573.616c-2.39 1.499-5.295 2.387-8.408 2.387-2.604 0-5.062-0.622-7.235-1.725l0.091 0.042-128-64c-5.288-2.685-8.848-8.083-8.848-14.313 0-0.003 0-0.005 0-0.008v0-16h-32c-0.11 39.731-29.201 72.635-67.241 78.692l-0.455 0.060c60.094 37.151 99.534 102.678 99.534 177.417 0 114.813-93.075 207.888-207.888 207.888-100.022 0-183.546-70.638-203.406-164.749l-0.24-1.356c-29.169 42.517-77.499 70.047-132.26 70.047-88.304 0-159.888-71.584-159.888-159.888 0-53.073 25.858-100.106 65.663-129.188l0.453-0.315c-37.819-6.766-66.168-39.361-66.272-78.597v-32.011h-32v16c0 8.837-7.163 16-16 16v0h-64c-8.837 0-16-7.163-16-16v0-352c0-8.837 7.163-16 16-16v0h64c8.837 0 16 7.163 16 16v0 16h32v-32c0.055-44.161 35.839-79.945 79.995-80h48.005v-16c0-26.51 21.49-48 48-48v0h320c26.51 0 48 21.49 48 48v0 16h48c44.161 0.055 79.945 35.839 80 79.995v0.005h32v-16c0-0.026 0-0.057 0-0.087 0-6.23 3.56-11.628 8.757-14.271l0.091-0.042 128-64c2.084-1.064 4.545-1.688 7.152-1.688 8.837 0 16 7.163 16 16 0 0.031 0 0.062 0 0.092v-0.005 544c-0.001 5.727-3.010 10.75-7.533 13.577l-0.067 0.039zM80 128h-32v320h32zM112 160v256h32v-256zM640 912c97.202 0 176-78.798 176-176s-78.798-176-176-176c-97.202 0-176 78.798-176 176v0c0.118 97.155 78.845 175.882 175.989 176h0.011zM529.6 560h-130.080c26.151 19.651 45.879 46.568 56.296 77.748l0.328 1.132c17.596-32.602 42.489-59.232 72.605-78.375l0.851-0.505zM176 688c0 70.692 57.308 128 128 128s128-57.308 128-128c0-70.692-57.308-128-128-128v0c-70.659 0.082-127.918 57.34-128 127.992v0.008zM656 0c0-8.837-7.163-16-16-16v0h-320c-8.837 0-16 7.163-16 16v0 16h352zM784 96c0-26.51-21.49-48-48-48v0h-512c-26.51 0-48 21.49-48 48v0 384c0 26.51 21.49 48 48 48v0h512c26.51 0 48-21.49 48-48v0zM816 128v320h32v-320zM976 41.888l-96 48v396.224l96 48zM304 624c35.346 0 64 28.654 64 64s-28.654 64-64 64c-35.346 0-64-28.654-64-64v0c0-35.346 28.654-64 64-64v0zM304 720c17.673 0 32-14.327 32-32s-14.327-32-32-32c-17.673 0-32 14.327-32 32v0c0 17.673 14.327 32 32 32v0zM640 624c61.856 0 112 50.144 112 112s-50.144 112-112 112c-61.856 0-112-50.144-112-112v0c0.073-61.827 50.174-111.927 111.993-112h0.007zM640 816c44.183 0 80-35.817 80-80s-35.817-80-80-80c-44.183 0-80 35.817-80 80v0c0.055 44.161 35.839 79.945 79.995 80h0.005zM704 448h-448c-8.837 0-16-7.163-16-16v0-288c0-8.837 7.163-16 16-16v0h448c8.837 0 16 7.163 16 16v0 288c0 8.837-7.163 16-16 16v0zM688 160h-416v256h416zM336 224h80v-32h32v32h32v32h-32v112c0 0.012 0 0.026 0 0.040 0 8.837-7.163 16-16 16-0.4 0-0.796-0.015-1.189-0.043l0.052 0.003c-7.312-0.528-7.312-0.528-107.664-134.4-1.998-2.641-3.2-5.98-3.2-9.6 0-8.837 7.163-16 16-16v0zM416 320v-64h-48c13.728 18.336 32.48 43.328 48 64zM544 270.4c36.753-7.756 63.95-39.895 64-78.395v-0.005h32c-0.067 40.601-21.727 76.129-54.108 95.719l-0.5 0.281c32.881 19.871 54.541 55.399 54.608 95.99v0.010h-32c-0.050-38.505-27.247-70.644-63.477-78.307l-0.523-0.093v78.4h-32v-192h32z" />
<glyph unicode="&#xe906;" glyph-name="cart" d="M319.168 440.928c-23.136 0-41.888-18.752-41.888-41.888s18.752-41.888 41.888-41.888 41.888 18.752 41.888 41.888c0.032 23.136-18.752 41.888-41.888 41.888zM704.832 440.928c-23.136 0-41.888-18.752-41.888-41.888s18.752-41.888 41.888-41.888 41.888 18.752 41.888 41.888-18.752 41.888-41.888 41.888zM976.032 125.248l-97.344 404c-10.080 41.856-47.2 71.104-90.208 71.104h-54.848v102.848c0 122.176-99.456 221.6-221.632 221.6-122.208 0-221.632-99.424-221.632-221.632v-102.848h-54.848c-43.008 0-80.096-29.248-90.208-71.104l-97.344-403.968c-9.024-37.44-0.512-76.256 23.296-106.464 23.808-30.24 59.52-47.584 98.016-47.584h685.44c38.496 0 74.208 17.344 98.016 47.584 23.84 30.208 32.32 69.024 23.296 106.464zM347.968 703.2c0 90.432 73.568 164 164.032 164 90.432 0 164-73.568 164-164v-102.848h-328.032zM907.488 54.4c-12.8-16.288-32.064-25.6-52.768-25.6h-685.44c-20.704 0-39.968 9.312-52.768 25.6s-17.408 37.184-12.544 57.344l97.344 404c3.84 15.872 17.92 26.976 34.208 26.976h552.96c16.32 0 30.368-11.104 34.208-26.976l97.344-404c4.864-20.16 0.288-41.056-12.544-57.344z" />
<glyph unicode="&#xe907;" glyph-name="check-circle" d="M302.080 545.28l-71.68-71.68 230.4-230.4 512 512-71.68 71.68-440.32-440.32-158.72 158.72zM921.6 448c0-225.28-184.32-409.6-409.6-409.6s-409.6 184.32-409.6 409.6c0 225.28 184.32 409.6 409.6 409.6 40.96 0 76.8-5.12 112.64-15.36l81.92 81.92c-61.44 20.48-128 35.84-194.56 35.84-281.6 0-512-230.4-512-512s230.4-512 512-512c281.6 0 512 230.4 512 512h-102.4z" />
<glyph unicode="&#xe908;" glyph-name="download" d="M512 99.84c-11.311 0-20.48 9.169-20.48 20.48v0 327.68c0 11.311 9.169 20.48 20.48 20.48s20.48-9.169 20.48-20.48v0-327.68c0-11.311-9.169-20.48-20.48-20.48v0zM512 99.84c-0.011 0-0.024 0-0.037 0-5.646 0-10.759 2.285-14.464 5.981v0l-81.92 81.92c-3.711 3.711-6.006 8.837-6.006 14.5 0 11.325 9.181 20.506 20.506 20.506 5.663 0 10.789-2.295 14.5-6.006l81.92-81.92c3.717-3.708 6.017-8.835 6.017-14.5 0-11.311-9.169-20.48-20.48-20.48-0.013 0-0.026 0-0.039 0h0.002zM512 99.84c-0.011 0-0.024 0-0.037 0-11.311 0-20.48 9.169-20.48 20.48 0 5.665 2.3 10.792 6.016 14.499v0l81.92 81.92c3.711 3.711 8.837 6.006 14.5 6.006 11.325 0 20.506-9.181 20.506-20.506 0-5.663-2.295-10.789-6.006-14.5l-81.92-81.92c-3.704-3.695-8.817-5.98-14.463-5.98-0.013 0-0.026 0-0.039 0h0.002zM819.2 263.68h-225.28c-11.311 0-20.48 9.169-20.48 20.48s9.169 20.48 20.48 20.48v0h225.28c45.243 0 81.92 36.677 81.92 81.92s-36.677 81.92-81.92 81.92v0c-7.308-0.094-14.36-0.984-21.136-2.589l0.656 0.131c-1.282-0.285-2.754-0.449-4.264-0.449-11.311 0-20.48 9.169-20.48 20.48 0 1.449 0.151 2.863 0.437 4.227l-0.023-0.133c2.45 11.698 3.852 25.141 3.852 38.911 0 0.303-0.001 0.605-0.002 0.908v-0.047c0 0.138 0 0.301 0 0.464 0 124.419-100.861 225.28-225.28 225.28-100.591 0-185.784-65.929-214.725-156.933l-0.438-1.595c-2.679-8.405-10.417-14.387-19.553-14.387-2.431 0-4.764 0.424-6.928 1.201l0.143-0.045c-13.301 4.725-28.643 7.456-44.623 7.456-0.21 0-0.42 0-0.629-0.001h0.032c-79.176 0-143.36-64.184-143.36-143.36s64.184-143.36 143.36-143.36v0h163.84c11.311 0 20.48-9.169 20.48-20.48s-9.169-20.48-20.48-20.48v0h-163.84c-101.797 0-184.32 82.523-184.32 184.32s82.523 184.32 184.32 184.32v0c0.232 0.001 0.506 0.002 0.78 0.002 13.567 0 26.786-1.493 39.501-4.323l-1.205 0.225c40.059 99.517 135.798 168.486 247.645 168.486 147.040 0 266.24-119.2 266.24-266.24 0-0.193 0-0.387-0.001-0.58v0.030c0-7.004-0.246-13.844-0.778-20.48h0.778c67.865 0 122.88-55.015 122.88-122.88s-55.015-122.88-122.88-122.88v0z" />
<glyph unicode="&#xe909;" glyph-name="envelope" d="M919.624 549.376c-0.006 0-0.013 0-0.020 0-3.769 0-7.24 1.279-10.001 3.427l0.037-0.027-76.247 58.655c-3.913 3.028-6.407 7.725-6.407 13.005 0 9.058 7.343 16.402 16.402 16.402 3.779 0 7.259-1.278 10.032-3.425l-0.038 0.028 76.247-58.696c3.903-3.025 6.392-7.714 6.392-12.984 0-9.049-7.335-16.384-16.384-16.384-0.004 0-0.009 0-0.013 0h0.001zM104.376 22.016c-0.004 0-0.008 0-0.012 0-9.049 0-16.384 7.335-16.384 16.384 0 5.27 2.488 9.959 6.354 12.956l0.037 0.028 407.634 313.774c2.735 2.122 6.215 3.401 9.994 3.401s7.26-1.28 10.032-3.429l-0.037 0.028 381.256-293.468v460.749l-49.869-38.359c-2.735-2.122-6.215-3.401-9.994-3.401-9.049 0-16.385 7.336-16.385 16.385 0 5.27 2.488 9.959 6.354 12.956l0.037 0.028 76.247 58.696c2.736 2.127 6.221 3.409 10.004 3.409 9.049 0 16.384-7.335 16.384-16.384 0-0.003 0-0.007 0-0.010v0.001-527.36c0 0 0-0.001 0-0.002 0-9.049-7.335-16.384-16.384-16.384-3.779 0-7.26 1.28-10.032 3.429l0.037-0.028-397.65 306.084-397.64-306.084c-2.725-2.12-6.195-3.4-9.964-3.4-0.007 0-0.014 0-0.021 0h0.001zM919.644 22.016h-815.278c-9.049 0-16.384 7.335-16.384 16.384v0 527.36c0 9.049 7.335 16.384 16.384 16.384s16.384-7.335 16.384-16.384v0-510.976h782.51v477.655l-316.16-243.364c-2.735-2.122-6.215-3.401-9.994-3.401-9.049 0-16.385 7.336-16.385 16.385 0 5.27 2.488 9.959 6.354 12.956l0.037 0.028 342.487 263.66c2.744 2.146 6.243 3.441 10.045 3.441 9.049 0 16.384-7.335 16.384-16.384 0 0 0 0 0 0v0-527.36c0-9.049-7.335-16.384-16.384-16.384v0zM446.884 285.676c-0.006 0-0.013 0-0.020 0-3.769 0-7.24 1.279-10.001 3.427l0.037-0.027-342.528 263.66c-3.903 3.025-6.391 7.714-6.391 12.984 0 9.049 7.336 16.385 16.385 16.385 3.779 0 7.26-1.279 10.032-3.429l-0.037 0.028 342.487-263.66c3.903-3.025 6.392-7.714 6.392-12.984 0-9.049-7.335-16.384-16.384-16.384-0.004 0-0.009 0-0.013 0h0.001zM104.366 22.016c-9.049 0-16.384 7.335-16.384 16.384v0 527.36c0 0.012 0 0.025 0 0.039 0 5.44 2.651 10.261 6.732 13.241l0.047 0.032 75.868 58.368c2.735 2.122 6.215 3.401 9.994 3.401 9.049 0 16.385-7.336 16.385-16.385 0-5.27-2.488-9.959-6.354-12.956l-0.037-0.028-69.868-53.78v-519.291c0-9.049-7.335-16.384-16.384-16.384v0zM687.514 728.003c-0.006 0-0.013 0-0.020 0-3.769 0-7.24 1.279-10.001 3.427l0.037-0.027-124.57 95.857c-11.221 8.696-25.499 13.94-41.001 13.94s-29.78-5.244-41.155-14.055l0.154 0.115-124.488-95.857c-2.735-2.122-6.215-3.401-9.994-3.401-9.049 0-16.385 7.336-16.385 16.385 0 5.27 2.488 9.959 6.354 12.956l0.037 0.028 124.529 95.857c16.693 12.931 37.931 20.729 60.989 20.729s44.296-7.798 61.219-20.9l-0.23 0.171 124.529-95.857c3.903-3.025 6.392-7.714 6.392-12.984 0-9.049-7.335-16.384-16.384-16.384-0.004 0-0.009 0-0.013 0h0.001zM662.528 643.502h-311.153c-9.049 0-16.384 7.335-16.384 16.384s7.335 16.384 16.384 16.384v0h311.153c9.049 0 16.384-7.335 16.384-16.384s-7.335-16.384-16.384-16.384v0zM662.528 554.609h-311.153c-9.049 0-16.384 7.335-16.384 16.384s7.335 16.384 16.384 16.384v0h311.153c9.049 0 16.384-7.335 16.384-16.384s-7.335-16.384-16.384-16.384v0zM662.528 465.725h-311.153c-9.049 0-16.384 7.335-16.384 16.384s7.335 16.384 16.384 16.384v0h311.153c9.049 0 16.384-7.335 16.384-16.384s-7.335-16.384-16.384-16.384v0zM843.387 490.639c-9.049 0-16.384 7.335-16.384 16.384v0 220.979h-630.006v-220.979c0-9.049-7.335-16.384-16.384-16.384s-16.384 7.335-16.384 16.384v0 237.363c0 9.049 7.335 16.384 16.384 16.384v0h662.774c9.049 0 16.384-7.335 16.384-16.384v0-237.363c0-9.049-7.335-16.384-16.384-16.384v0z" />
<glyph unicode="&#xe90a;" glyph-name="internet" d="M512 960c-282.77 0-512-229.23-512-512s229.23-512 512-512 512 229.23 512 512-229.23 512-512 512zM768 836.888c0-5.586 0-10.938 0-16.524-0.008-47.456-4.842-94.788-14.43-141.266-37.642-8.356-61.384-45.648-53.028-83.29 2.76-12.428 8.864-23.864 17.652-33.074-15.070-37.998-33.448-74.6-54.924-109.382-88.934 100.478-146.888 224.548-166.866 357.236 53.798 32.784 111.816 58.074 172.45 75.17 34.876-12.294 68.158-28.7 99.146-48.87zM669.324 378.182c41.18-39.556 86.786-74.228 135.912-103.33-50.724-8.806-102.118-13.168-153.6-13.032-23.272 0-46.546 1.164-69.818 3.026-0.142 4.462-0.688 8.902-1.63 13.266 32.67 30.598 62.504 64.092 89.136 100.070zM512 913.454c25.51-0.16 50.962-2.418 76.102-6.75-33.43-12.702-65.868-27.87-97.048-45.382-2.328 16.756-2.328 33.746-2.328 50.968 7.914 1.164 15.362 1.164 23.274 1.164zM636.51 412.858c-24.772-34.166-52.58-66.024-83.084-95.186-31.21 22.644-74.868 15.698-97.512-15.512-3.802-5.242-6.858-10.986-9.078-17.070-92.192 22.004-180.216 58.784-260.654 108.916 20.622 78.152 54.724 152.104 100.77 218.532 37.586-8.612 75.036 14.876 83.648 52.462 1.182 5.158 1.774 10.434 1.764 15.728-0.018 9.358-1.918 18.618-5.586 27.23 26.952 27.066 56.062 51.894 87.040 74.24 24.804-137.894 88.144-265.946 182.692-369.34zM116.364 215.272c0-4.19 0-8.378 0-12.568-44.14 70.922-68.266 152.464-69.818 235.986 27.628-23.628 56.612-45.618 86.808-65.862-11.264-51.762-16.96-104.582-16.99-157.556zM145.688 421.004h-0.466c-33.804 23.648-65.92 49.622-96.116 77.73 23.256 209.612 184.544 377.394 393.076 408.902 0-24.824 1.396-49.416 4.19-73.774-39.946-26.912-77.2-57.62-111.244-91.694-10.016 5.406-21.2 8.282-32.582 8.378-38.558-0.278-69.592-31.76-69.314-70.32 0.112-15.436 5.336-30.402 14.856-42.554-45.632-66.206-80.214-139.38-102.4-216.668zM167.33 135.448c-8.538 70.26-5.868 141.43 7.912 210.85 84.178-50.058 175.772-86.43 271.36-107.752 0-1.164 0-2.56 1.164-3.956-83.164-54.108-176.97-89.74-275.084-104.494l-5.352 5.352zM512-17.454c-109.010-0.118-214.572 38.2-298.124 108.218 95.080 18.7 185.596 55.776 266.472 109.15 29.69-15.856 66.504-7.764 86.808 19.084 27.928-2.56 56.088-3.956 84.712-3.956 73.082 0.222 145.884 9.048 216.902 26.298 16.058-7.68 32.116-15.36 48.64-21.876-82.482-146.348-237.422-236.892-405.41-236.918zM873.658 290.21c-65.52 32.924-125.446 75.962-177.57 127.534 25.162 39.012 46.59 80.31 64 123.346 2.636-0.14 5.276-0.14 7.912 0 38.558 0.356 69.528 31.9 69.172 70.458-0.24 25.968-14.872 49.658-37.986 61.498 8.846 42.45 13.984 85.59 15.36 128.93 140.288-118.574 196.948-309.026 144.29-485.004-27.922-10.35-56.352-19.282-85.178-26.762z" />
<glyph unicode="&#xe90b;" glyph-name="location" d="M682.952 283.43c108.966 170.986 95.268 149.654 98.408 154.112 39.672 55.956 60.64 121.814 60.64 190.458 0 182.040-147.722 332-330 332-181.684 0-330-149.664-330-332 0-68.6 21.408-136.182 62.38-192.892l96.664-151.68c-103.35-15.882-279.044-63.212-279.044-167.428 0-37.99 24.796-92.13 142.924-134.318 82.484-29.458 191.538-45.682 307.076-45.682 216.050 0 450 60.944 450 180 0 104.234-175.488 151.514-279.048 167.43zM294.498 468.11c-0.33 0.516-0.674 1.020-1.034 1.516-34.094 46.904-51.464 102.492-51.464 158.374 0 150.036 120.812 272 270 272 148.878 0 270-122.018 270-272 0-55.972-17.042-109.674-49.292-155.342-2.89-3.812 12.188 19.612-220.708-345.836l-217.502 341.288zM512-4c-235.988 0-390 69.366-390 120 0 34.032 79.136 89.99 254.496 111.802l110.204-172.926c5.508-8.644 15.048-13.876 25.298-13.876s19.792 5.234 25.298 13.876l110.202 172.926c175.364-21.812 254.502-77.77 254.502-111.802 0-50.204-152.626-120-390-120zM512 778c-82.71 0-150-67.29-150-150s67.29-150 150-150c82.71 0 150 67.29 150 150s-67.29 150-150 150zM512 538c-49.626 0-90 40.374-90 90s40.374 90 90 90 90-40.374 90-90-40.374-90-90-90z" />
<glyph unicode="&#xe90c;" glyph-name="movie" d="M960 912h-896c-35.296 0-64-28.704-64-64v-672c0-35.296 28.704-64 64-64h374.112l-16-32h-86.112c-26.464 0-48-21.536-48-48v-32c0-8.832 7.168-16 16-16h416c8.832 0 16 7.168 16 16v32c0 26.464-21.536 48-48 48h-86.112l-16 32h374.112c35.296 0 64 28.704 64 64v672c0 35.296-28.704 64-64 64zM704 32v-16h-384v16c0 8.816 7.184 16 16 16h352c8.816 0 16-7.184 16-16zM566.112 80h-108.224l16 32h76.224zM992 176c0-17.648-14.352-32-32-32h-896c-17.648 0-32 14.352-32 32v672c0 17.648 14.352 32 32 32h896c17.648 0 32-14.352 32-32zM928 832h-832c-8.832 0-16-7.168-16-16v-608c0-8.832 7.168-16 16-16h832c8.832 0 16 7.168 16 16v608c0 8.832-7.168 16-16 16zM912 224h-800v576h800zM592 512c0 6.064-3.424 11.6-8.848 14.32l-128 64c-4.96 2.464-10.848 2.208-15.568-0.704-4.704-2.912-7.584-8.064-7.584-13.616v-128c0-5.552 2.88-10.688 7.584-13.616 2.576-1.584 5.488-2.384 8.416-2.384 2.448 0 4.896 0.56 7.152 1.68l128 64c5.424 2.72 8.848 8.256 8.848 14.32zM464 473.888v76.224l76.224-38.112zM194.432 288.192c2.064 0.32 208.080 31.808 317.568 31.808 125.184 0 315.456-31.456 317.36-31.776 0.88-0.16 1.76-0.224 2.64-0.224 3.76 0 7.424 1.328 10.336 3.792 3.6 3.040 5.664 7.504 5.664 12.208v416c0 4.704-2.064 9.168-5.664 12.208s-8.352 4.352-12.976 3.568c-1.904-0.32-192.176-31.776-317.36-31.776s-315.456 31.456-317.36 31.776c-4.656 0.784-9.392-0.528-12.976-3.568-3.6-3.040-5.664-7.504-5.664-12.208v-416c0-4.672 2.032-9.104 5.584-12.144 3.536-3.040 8.272-4.384 12.848-3.664zM208 701.248c51.584-8.032 198.048-29.248 304-29.248s252.416 21.216 304 29.248v-378.48c-51.584 8.016-198.048 29.232-304 29.232-93.664 0-250.32-21.616-304-29.44z" />
<glyph unicode="&#xe90d;" glyph-name="phone" d="M706.219 31.915c-20.916 0.021-41.143 2.932-60.315 8.357l1.563-0.378c-264.389 74.945-468.422 278.865-542.189 537.685l-1.342 5.504c-5.044 17.56-7.945 37.73-7.945 58.577 0 43.269 12.496 83.618 34.077 117.637l-0.532-0.897c32.951 52.607 85.472 90.356 147.127 103.209l1.481 0.258c5.882 1.276 12.638 2.007 19.566 2.007 35.045 0 65.721-18.703 82.592-46.672l0.242-0.433 66.731-112.64c10.464-17.398 16.653-38.397 16.653-60.841 0-41.344-21.001-77.782-52.918-99.229l-0.428-0.271-48.256-32.128c46.348-93.339 120.098-167.212 210.637-212.496l2.696-1.221 32.512 48.512c21.743 32.17 58.082 53.040 99.296 53.040 22.615 0 43.762-6.284 61.791-17.201l-0.533 0.3 112.725-67.243c28.267-17.060 46.877-47.609 46.877-82.504 0-6.663-0.679-13.168-1.97-19.449l0.107 0.62c-13.066-63.214-50.843-115.806-102.556-148.221l-0.953-0.557c-33.13-20.913-73.442-33.323-116.652-33.323-0.029 0-0.059 0-0.088 0h0.004zM297.728 799.915c-2.236-0.002-4.417-0.235-6.521-0.676l0.206 0.036c-45.686-9.254-83.73-36.459-107.162-73.77l-0.4-0.683c-14.979-23.535-23.873-52.214-23.873-82.97 0-14.874 2.080-29.262 5.965-42.889l-0.268 1.101c68.871-242.553 256.085-429.683 493.641-497.205l5.047-1.227c12.484-3.591 26.824-5.655 41.645-5.655 30.761 0 59.445 8.894 83.62 24.251l-0.636-0.377c37.817 23.617 64.956 61.325 74.183 105.605l0.185 1.061c0.393 1.885 0.618 4.051 0.618 6.269 0 11.631-6.188 21.816-15.452 27.443l-0.142 0.080-112.768 67.243c-8.133 4.945-17.967 7.872-28.484 7.872-19.159 0-36.050-9.714-46.015-24.486l-0.125-0.197-47.573-70.997c-5.844-8.602-15.583-14.18-26.624-14.18-4.434 0-8.657 0.899-12.498 2.525l0.21-0.079c-127.803 54.971-227.52 154.909-280.882 279.429l-1.315 3.451c-1.557 3.636-2.462 7.866-2.462 12.308 0 11.071 5.622 20.828 14.166 26.574l0.115 0.073 70.869 47.488c15.032 10.082 24.794 27.008 24.794 46.214 0 10.417-2.872 20.164-7.867 28.491l0.14-0.252-66.773 112.469c-5.675 9.482-15.887 15.735-27.561 15.744h-0.001zM757.333 533.333c-0.121 88.317-71.683 159.879-159.988 160h-0.012c-17.673 0-32-14.327-32-32s14.327-32 32-32v0c52.99-0.073 95.927-43.010 96-95.993v-0.007c0-17.673 14.327-32 32-32s32 14.327 32 32v0zM885.333 533.333c-0.194 158.98-129.020 287.806-287.981 288h-0.019c-17.673 0-32-14.327-32-32s14.327-32 32-32v0c123.653-0.146 223.855-100.347 224-223.986v-0.014c0-17.673 14.327-32 32-32s32 14.327 32 32v0z" />
<glyph unicode="&#xe90e;" glyph-name="play" d="M947.2 448l-844.8-487.747v975.492l844.8-487.746z" />
<glyph unicode="&#xe90f;" glyph-name="project" d="M390.001 478c16.541 0 30-13.459 30-30s-13.459-30-30-30c-16.541 0-30 13.459-30 30s13.459 30 30 30zM420 594.999v-62.16c-9.38 3.342-19.48 5.161-30 5.161-49.621 0-90.001-40.38-90.001-89.999s40.38-89.999 90.001-89.999c10.52 0 20.62 1.819 30 5.161v-62.16c-9.82-2-19.859-3-30-3-82.701 0-150.001 67.297-150.001 149.999s67.3 149.999 150.001 149.999c10.141 0 20.18-1 30-3zM180 448c0-115.801 94.2-209.999 210.001-209.999 10.1 0 20.118 0.7 30 2.14v-182.142h-90c-16.56 0-30 13.442-30 30v42.482c-24.54 6.977-48.2 16.858-70.74 29.519l-30.18-30.201c-11.72-11.718-30.7-11.718-42.42 0l-84.86 84.862c-11.724 11.721-11.678 30.74 0 42.417l30.2 30.201c-12.68 22.521-22.54 46.179-29.52 70.721h-42.48c-16.56 0-30 13.438-30 30v119.999c0 16.561 13.44 30 30 30h42.48c6.98 24.542 16.84 48.2 29.52 70.741l-30.2 30.179c-11.678 11.678-11.724 30.696 0 42.42l84.86 84.86c11.72 11.72 30.7 11.72 42.42 0l30.2-30.2c22.52 12.68 46.18 22.54 70.72 29.52v42.48c0 16.56 13.44 30 30 30h90v-182.14c-9.882 1.44-19.9 2.14-30 2.14-115.801 0-210.001-94.199-210.001-210v0zM844.001 820.44v-162.44h162.437l-162.437 162.44zM569.999 658h124c16.561 0 30-13.44 30-30s-13.438-30.001-30-30.001h-124c-16.558 0-30 13.442-30 30.001s13.442 30 30 30zM874.001 238.001h-304.002c-16.558 0-30 13.438-30 30 0 16.558 13.442 30 30 30h304.002c16.558 0 30-13.442 30-30 0-16.561-13.442-30-30-30zM874.001 358.001h-304.002c-16.558 0-30 13.438-30 30 0 16.558 13.442 30 30 30h304.002c16.558 0 30-13.442 30-30 0-16.561-13.442-30-30-30zM874.001 478h-304.002c-16.558 0-30 13.442-30 30 0 16.561 13.442 30 30 30h304.002c16.558 0 30-13.438 30-30 0-16.558-13.442-30-30-30zM814.001 597.999c-16.561 0-30 13.442-30 30.001v210h-304.002v-780.001h514c16.558 0 30 13.442 30 30v510h-209.999z" />
<glyph unicode="&#xe910;" glyph-name="review" d="M434.070 924.361v0c-1.84 4.852-8.769 4.852-10.605 0.002l-27.242-71.75c-0.819-2.156-2.727-3.542-5.031-3.654l-76.655-3.736c-5.214-0.254-7.348-6.822-3.28-10.092l59.82-48.080c1.798-1.444 2.524-3.686 1.92-5.912l-20.134-74.060c-1.37-5.036 4.216-9.096 8.584-6.236l64.213 42.034c1.929 1.264 4.284 1.264 6.216 0l64.212-42.034c4.369-2.86 9.957 1.2 8.585 6.236l-20.135 74.058c-0.604 2.226 0.123 4.468 1.922 5.912l59.822 48.080c4.065 3.27 1.932 9.838-3.28 10.092l-76.657 3.736c-2.304 0.112-4.212 1.498-5.031 3.654l-27.242 71.75zM804.7 316.692c96.287 0 174.346-78.056 174.346-174.346 0-96.287-78.060-174.346-174.346-174.346s-174.346 78.060-174.346 174.346c0 96.29 78.060 174.346 174.346 174.346zM781.8 126.969l-38.956 38.956c-10.097 10.097-26.474 10.097-36.57 0s-10.097-26.474 0-36.57l57.296-57.3c10.097-10.093 26.474-10.093 36.57 0 34.536 34.536 68.683 69.465 103.059 104.158 10.025 10.117 9.991 26.443-0.113 36.492-10.107 10.049-26.477 10.022-36.512-0.116l-84.774-85.62zM141.838 61.58c-11.566 0-20.212 10.336-18.168 21.719 25.988 144.927 152.694 254.918 305.099 254.918 79.176 0 151.402-29.693 206.189-78.537-23.071-33.314-36.601-73.742-36.601-117.333 0-28.662 5.847-55.958 16.408-80.763l-472.927-0.003zM428.769 671.683c-86.561 0-156.733-70.172-156.731-156.734 0-86.559 70.172-156.73 156.731-156.73 86.562 0 156.733 70.171 156.733 156.73 0 86.562-70.171 156.734-156.733 156.734zM698.129 822.801l27.235-71.752c0.819-2.156 2.724-3.542 5.028-3.654l76.657-3.736c5.216-0.254 7.349-6.822 3.28-10.092l-59.819-48.080c-1.799-1.446-2.529-3.686-1.922-5.912l20.135-74.060c1.372-5.035-4.215-9.093-8.585-6.233l-64.212 42.032c-1.932 1.264-4.287 1.264-6.216 0l-64.215-42.032c-4.366-2.86-9.953 1.198-8.581 6.233l20.132 74.061c0.608 2.226-0.119 4.466-1.918 5.912l-59.822 48.080c-4.065 3.27-1.932 9.838 3.28 10.092l76.657 3.736c2.304 0.112 4.212 1.496 5.031 3.654l27.242 71.75c1.84 4.852 8.769 4.852 10.612 0zM170.012 822.801l27.238-71.752c0.82-2.156 2.726-3.542 5.030-3.654l76.656-3.736c5.214-0.254 7.348-6.822 3.28-10.092l-59.82-48.080c-1.798-1.446-2.526-3.686-1.92-5.912l20.134-74.060c1.37-5.035-4.216-9.093-8.584-6.233l-64.214 42.032c-1.93 1.264-4.286 1.264-6.216 0l-64.212-42.032c-4.368-2.86-9.954 1.198-8.584 6.233l20.134 74.061c0.606 2.226-0.122 4.466-1.92 5.912l-59.82 48.080c-4.068 3.27-1.934 9.838 3.28 10.092l76.656 3.736c2.304 0.112 4.212 1.496 5.030 3.654l27.242 71.75c1.84 4.852 8.768 4.852 10.61 0z" />
<glyph unicode="&#xe911;" glyph-name="satelite" d="M803.738 392.096c-15.858 9.154-32.81 14.692-47.738 15.586-18.596 1.124-32.718-4.94-39.714-17.056s-5.19-27.36 5.086-42.922c8.24-12.48 21.51-24.394 37.366-33.548 18.068-10.432 36.27-15.624 51.666-15.624 16.154 0 29.218 5.718 35.788 17.092 0 0.002 0 0.002 0 0.002 12.824 22.216-5.426 55.092-42.454 76.47zM820.21 330.626c-1.872-3.234-21.326-5.010-46.472 9.51-11.73 6.772-21.692 15.554-27.332 24.098-4.31 6.528-4.544 10.692-4.14 11.392 0.232 0.402 2.758 2.19 9.428 2.19 0.778 0 1.614-0.024 2.508-0.078 10.218-0.614 22.806-4.85 34.536-11.622 25.15-14.52 33.338-32.258 31.472-35.49zM649.97 694.994c0 8.286-6.716 15-15 15-28.99 0-52.576 23.586-52.576 52.576 0 8.286-6.716 15-15 15s-15-6.714-15-15c0-45.534 37.044-82.576 82.576-82.576 8.284 0 15 6.714 15 15zM629.97 594.994c0 8.286-6.716 15-15 15-73.104 0-132.578 59.472-132.578 132.576 0 8.286-6.716 15-15 15s-15-6.714-15-15c0-89.644 72.932-162.576 162.578-162.576 8.284 0 15 6.714 15 15zM609.97 494.994c0 8.286-6.716 15-15 15-117.216 0-212.578 95.362-212.578 212.576 0 8.286-6.716 15-15 15s-15-6.714-15-15c0-133.758 108.82-242.576 242.578-242.576 8.284 0 15 6.714 15 15zM282.392 702.57c0 8.286-6.716 15-15 15s-15-6.714-15-15c0-177.87 144.708-322.576 322.578-322.576 8.284 0 15 6.714 15 15s-6.716 15-15 15c-161.328 0-292.578 131.25-292.578 292.576zM979 909.994h-608.944c-8.284 0-15-6.714-15-15s6.716-15 15-15h608.944c8.27 0 15-6.728 15-15v-15h-68.36c-8.284 0-15-6.714-15-15s6.716-15 15-15h68.36v-490h-70.234l34.386 59.556c12.406 21.486 5.018 49.062-16.47 61.47l-155.886 90c-21.488 12.404-49.064 5.018-61.47-16.47l-112.328-194.556h-581.998v45c0 8.286-6.716 15-15 15s-15-6.714-15-15v-110c0-24.812 20.186-45 45-45h386.272c-4.36-17.78-15.494-30-21.716-30h-114.556c-30.328 0-55-24.674-55-55 0-19.298 15.702-35 35-35h228.526c3.82-7.262 9.654-13.57 17.27-17.966l155.884-90c7.068-4.080 14.794-6.020 22.422-6.020 15.566 0 30.722 8.072 39.048 22.492l168.294 291.494h87.556v-35c0-8.272-6.73-15-15-15h-64.53c-8.284 0-15-6.714-15-15s6.716-15 15-15h64.53c24.814 0 45 20.188 45 45v600c0 24.812-20.186 45-45 45zM30 264.994v35h564.678l-28.868-50h-520.81c-8.27 0-15 6.728-15 15zM461.84 219.994h86.65l-17.32-30h-80.212c5.202 8.71 9.028 18.948 10.882 30zM270 134.994c0 13.786 11.214 25 25 25h218.848l-9.522-16.494c-2.49-4.314-4.17-8.874-5.112-13.506h-224.214c-2.756 0-5 2.242-5 5zM712.17 23.5c-4.136-7.164-13.33-9.624-20.49-5.492l-155.884 90c-7.164 4.136-9.626 13.328-5.492 20.492l220 381.050c4.136 7.16 13.33 9.622 20.49 5.49l155.884-90c7.164-4.136 9.626-13.328 5.492-20.49zM15 419.994c8.284 0 15 6.714 15 15v385h835.64c8.284 0 15 6.714 15 15s-6.716 15-15 15h-835.64v15c0 8.272 6.728 15 15 15h265.056c8.284 0 15 6.714 15 15s-6.716 15-15 15h-265.056c-24.814 0-45-20.188-45-45v-430c0-8.286 6.716-15 15-15zM610.246 149.304c0-8.837-7.163-16-16-16s-16 7.163-16 16c0 8.837 7.163 16 16 16s16-7.163 16-16zM662.208 119.304c0-8.837-7.163-16-16-16s-16 7.163-16 16c0 8.837 7.163 16 16 16s16-7.163 16-16zM714.172 89.292c0-8.837-7.163-16-16-16s-16 7.163-16 16c0 8.837 7.163 16 16 16s16-7.163 16-16zM640.25 201.252c0-8.837-7.163-16-16-16s-16 7.163-16 16c0 8.837 7.163 16 16 16s16-7.163 16-16zM692.212 171.252c0-8.837-7.163-16-16-16s-16 7.163-16 16c0 8.837 7.163 16 16 16s16-7.163 16-16zM744.178 141.242c0-8.837-7.163-16-16-16s-16 7.163-16 16c0 8.837 7.163 16 16 16s16-7.163 16-16zM670.242 253.23c0-8.837-7.163-16-16-16s-16 7.163-16 16c0 8.837 7.163 16 16 16s16-7.163 16-16zM722.204 223.23c0-8.837-7.163-16-16-16s-16 7.163-16 16c0 8.837 7.163 16 16 16s16-7.163 16-16zM774.17 193.218c0-8.837-7.163-16-16-16s-16 7.163-16 16c0 8.837 7.163 16 16 16s16-7.163 16-16zM700.246 305.188c0-8.837-7.163-16-16-16s-16 7.163-16 16c0 8.837 7.163 16 16 16s16-7.163 16-16zM752.208 275.188c0-8.837-7.163-16-16-16s-16 7.163-16 16c0 8.837 7.163 16 16 16s16-7.163 16-16zM804.172 245.176c0-8.837-7.163-16-16-16s-16 7.163-16 16c0 8.837 7.163 16 16 16s16-7.163 16-16zM894.172 401.062c0-8.837-7.163-16-16-16s-16 7.163-16 16c0 8.837 7.163 16 16 16s16-7.163 16-16z" />
<glyph unicode="&#xe912;" glyph-name="service" d="M961.396 320.703v64.631h-297.943c0-83.63-67.792-151.426-151.422-151.426s-151.424 67.796-151.424 151.426h-297.94v-64.631l129.376-13.701c8.070-33.079 21.136-64.201 38.354-92.522l-81.816-101.195 91.402-91.402 101.194 81.818c28.32-17.22 59.443-30.287 92.525-38.356l13.698-129.376h129.263l13.698 129.376c33.082 8.069 64.205 21.135 92.525 38.356l101.195-81.818 91.399 91.402-81.814 101.195c17.217 28.32 30.283 59.443 38.352 92.522l129.379 13.701zM512.065 960c-63.997 0-116.064-52.068-116.064-116.066s52.067-116.064 116.064-116.064c64 0 116.067 52.066 116.067 116.064s-52.067 116.066-116.067 116.066zM635.668 695.8h-247.146c-56.899-0.002-103.189-46.29-103.189-103.187v-147.227h453.523v147.227c0 56.897-46.288 103.187-103.188 103.187zM265.841 906.4c-57.332 0-103.974-46.644-103.974-103.974 0-56.87 45.902-103.196 102.6-103.938 23.48 27.464 55.878 47.066 92.686 54.256 8.068 14.77 12.662 31.698 12.662 49.682 0 57.332-46.642 103.974-103.974 103.974zM155.105 669.667c-50.97 0-92.438-41.466-92.438-92.438v-131.891h162.602v147.231c0 27.87 7.036 54.124 19.406 77.098h-89.57zM758.241 906.4c-57.334 0-103.974-46.644-103.974-103.974 0-17.982 4.591-34.912 12.66-49.682 36.809-7.19 69.205-26.792 92.686-54.256 56.699 0.74 102.601 47.068 102.601 103.938 0 57.332-46.643 103.974-103.974 103.974zM868.905 669.667h-89.573c12.37-22.974 19.408-49.228 19.408-77.098v-147.227h162.601v131.891c0 50.969-41.469 92.434-92.436 92.434z" />
<glyph unicode="&#xe913;" glyph-name="wifi" d="M767.936 880.031v-384.031c-17.888 0-31.929-14.486-31.937-31.938l-0.060-144.094h-639.907c-35.798 0-64.031-28.852-64.031-64.031v-159.906c0-35.179 28.353-64.031 64.031-64.031h15.938v-47.938c-0.034-8.885 7.177-16.096 16.063-16.063h111.969c8.836 0.035 16.034 7.226 16 16.063v47.938h511.937v-47.938c-0.034-8.897 7.197-16.114 16.094-16.063h111.938c8.897-0.051 16.127 7.165 16.094 16.063v47.938h15.938c35.798 0 64 28.852 64 64.031v159.906c0 35.179-28.196 64.031-64 64.031h-32.031v144.094c0 17.451-14.143 31.938-31.969 31.938l-0.032 384.031c-0.002 26.315-21.247 47.969-47.938 47.969s-48.095-21.653-48.095-47.969zM816.029 895.969c8.703 0 15.938-6.797 15.938-15.938l0.031-384.031h-32l-0.032 384.031c0 9.141 7.36 15.938 16.063 15.938zM360.936 747.063c-109.682 0-214.806-44.21-292.312-122.625-15.603-14.575 8.392-38.32 22.781-22.438 71.55 72.388 168.424 113.031 269.531 113.031 101.117 0 198.105-40.632 269.656-113.031 14.486-15.989 38.26 7.979 22.782 22.438-77.508 78.427-182.746 122.625-292.438 122.625zM360.936 646.406c-83.341 0-163.155-33.488-222.031-93.063-16.541-14.069 9.185-38.591 22.657-22.437 52.919 53.547 124.608 83.625 199.375 83.625 74.758 0 146.458-30.088 199.375-83.625 14.675-15.486 37.992 7.567 22.813 22.437-58.874 59.563-138.855 93.063-222.188 93.063zM360.936 545.906c-56.984 0-111.508-22.818-151.75-63.531-15.536-14.333 8.116-38.454 22.656-22.563 34.285 34.686 80.684 54.094 129.094 54.094 48.415 0 94.933-19.4 129.219-54.094 14.849-15.658 38.074 7.776 22.781 22.563-40.244 40.721-95.010 63.531-152 63.531zM767.999 464h95.969v-144.031h-96.031zM360.936 445.406c-30.646 0-59.981-12.28-81.594-34.156-15.708-15.187 7.747-38.417 22.781-22.562 15.655 15.846 36.744 24.687 58.812 24.687 22.057 0 43.285-8.857 58.938-24.687 15.037-15.743 38.347 7.439 22.687 22.562-21.609 21.854-50.996 34.156-81.625 34.156zM96.029 287.938h831.969c18.004 0 32-14.245 32-32v-159.906c0-18.005-14.437-32-32-32h-831.969c-17.755 0-32 13.995-32 32v159.906c0 17.755 13.995 32 32 32zM175.936 255.938c-26.695 0-47.938-21.617-47.938-47.938s21.264-47.969 47.938-47.969c26.674 0 48.094 21.649 48.094 47.969s-21.399 47.938-48.094 47.938zM304.092 255.938c-26.939 0-48.094-21.617-48.094-47.938s21.461-47.969 48.094-47.969c26.633 0 47.938 21.649 47.938 47.969s-20.999 47.938-47.938 47.938zM432.061 255.938c-26.762 0-48.094-21.617-48.094-47.938s21.461-47.969 48.094-47.969c26.633 0 47.938 21.649 47.938 47.969s-21.176 47.938-47.938 47.938zM175.936 224.063c8.526 0 16.094-7.036 16.094-16.063s-7.442-15.938-16.094-15.938-15.938 6.911-15.938 15.938 7.412 16.063 15.938 16.063zM304.092 224.063c8.584 0 15.938-7.036 15.938-16.063s-7.286-15.938-15.938-15.938c-8.651 0-16.094 6.911-16.094 15.938s7.509 16.063 16.094 16.063zM432.061 224.063c8.407 0 15.938-7.036 15.938-16.063s-7.224-15.938-15.938-15.938c-8.713 0-16.094 6.911-16.094 15.938s7.686 16.063 16.094 16.063zM527.936 224.063c-20.87 0-20.87-32 0-32h144.125c20.87 0 20.87 32 0 32zM743.967 224.063c-20.87 0-20.87-32 0-32h40.063c20.87 0 20.87 32 0 32zM143.967 32h80.031v-32h-80.031zM799.998 32h80v-32h-80z" />
<glyph unicode="&#xe914;" glyph-name="wifi-two" d="M40.96 611.84l71.68-71.68c220.16 220.16 578.56 220.16 798.72 0l71.68 71.68c-261.12 261.12-680.96 261.12-942.080 0zM184.32 468.48l71.68-71.68c138.24 138.24 368.64 138.24 506.88 0l71.68 71.68c-174.080 179.2-471.040 179.2-650.24 0zM332.8 320l71.68-71.68c61.44 61.44 158.72 61.44 215.040 0l71.68 71.68c-97.28 102.4-261.12 102.4-358.4 0zM563.2 140.8c0-28.277-22.923-51.2-51.2-51.2s-51.2 22.923-51.2 51.2c0 28.277 22.923 51.2 51.2 51.2s51.2-22.923 51.2-51.2z" />
</font>
</defs>
</svg>
